Patient4_TMGait_0pt2_02_right_12_GRF.mot
version=1
nRows=71
nColumns=19
inDegrees=no
endheader
time	F1x	F1y	F1z	M1x	M1y	M1z	F2x	F2y	F2z	M2x	M2y	M2z	EC1x	EC1y	EC1z	EC2x	EC2y	EC2z
26.69	-4.6334	794.2191	64.3466	-200.8418	-52.0591	654.668	-6.8589	53.1167	-0.28416	23.6068	2.8605	42.9934	-0.0592	0.0182	-0.0073	-0.0462	0.0165	0.9585
26.7102	-5.7264	804.4176	64.2724	-203.5273	-51.5411	661.7518	-6.6155	49.2	-0.51809	21.8077	3.0539	39.2329	-0.0592	0.0182	-0.0073	-0.0462	0.0165	0.9585
26.7304	-6.7964	814.8975	64.3786	-206.2188	-51.0672	668.7525	-6.4992	43.8801	-0.65672	19.3997	3.2075	34.4951	-0.0592	0.0182	-0.0073	-0.0462	0.0165	0.9585
26.7506	-7.6695	824.1035	64.6504	-208.5191	-50.6331	674.3979	-6.4064	37.3352	-0.67743	16.4675	3.2501	28.9691	-0.0592	0.0182	-0.0073	-0.0462	0.0165	0.9585
26.7709	-8.1736	830.4912	65.0084	-210.0577	-50.1756	677.4175	-6.146	29.9995	-0.59159	13.2049	3.1073	22.9985	-0.0592	0.0182	-0.0073	-0.0462	0.0165	0.9585
26.7911	-8.1714	832.8555	65.3232	-210.5685	-49.5892	676.8125	-5.5355	22.507	-0.43756	9.8899	2.7343	17.0514	-0.0592	0.0182	-0.0073	-0.0462	0.0165	0.9585
26.8113	-7.5625	830.5583	65.4318	-209.944	-48.7382	672.0329	-4.5511	15.5615	-0.26931	6.8288	2.1691	11.6302	-0.0592	0.0182	-0.0073	-0.0462	0.0165	0.9585
26.8315	-6.2727	823.6072	65.161	-208.246	-47.4736	663.0471	-3.4174	9.7239	-0.12059	4.264	1.5441	7.1283	-0.0592	0.0182	-0.0073	-0.0462	0.0165	0.9585
26.8517	-4.2631	812.6097	64.3531	-205.6859	-45.6626	650.3221	-2.3647	5.1744	0.00023436	2.2732	0.9732	3.656	-0.0592	0.0182	-0.0073	-0.0462	0.0165	0.9585
26.8719	-1.5454	798.6382	62.9074	-202.5777	-43.2312	634.7255	-1.5072	1.7738	0.096009	0.79354	0.50745	1.0825	-0.0592	0.0182	-0.0073	-0.0462	0.0165	0.9585
26.8921	1.8201	783.0234	60.8077	-199.2729	-40.187	617.3645	-0.87161	-0.77081	0.17877	-0.30527	0.15037	-0.83982	-0.0592	0.0182	-0.0073	-0.0462	0.0165	0.9585
26.9124	5.7404	767.1467	58.1364	-196.1029	-36.6232	599.4263	-0.43309	-2.7862	0.26646	-1.1693	-0.12366	-2.3791	-0.0592	0.0182	-0.0073	-0.0462	0.0165	0.9585
26.9326	10.0814	752.2596	55.0752	-193.3345	-32.7198	582.0346	-0.14091	-4.5447	0.37552	-1.9197	-0.35157	-3.7499	-0.0592	0.0182	-0.0073	-0.0462	0.0165	0.9585
26.9528	14.6596	739.3683	51.8797	-191.1544	-28.7225	566.1503	0.067514	-6.1879	0.52167	-2.6196	-0.57367	-5.0566	-0.0592	0.0182	-0.0073	-0.0462	0.0165	0.9585
26.973	19.2522	729.1469	48.8236	-189.6618	-24.8912	552.469	0.25859	-7.6592	0.71366	-3.2449	-0.82399	-6.2441	-0.0592	0.0182	-0.0073	-0.0462	0.0165	0.9585
26.9932	23.6403	721.8662	46.1534	-188.8633	-21.4541	541.3337	0.49667	-8.6404	0.9484	-3.6589	-1.1225	-7.0442	-0.0592	0.0182	-0.0073	-0.0462	0.0165	0.9585
27.0134	27.6597	717.3342	44.0637	-188.6629	-18.5803	532.678	0.83738	-8.5018	1.2041	-3.5907	-1.467	-6.9323	-0.0592	0.0182	-0.0073	-0.0462	0.0165	0.9585
27.0336	31.2113	714.8702	42.6854	-188.853	-16.3718	526.0199	1.313	-6.2706	1.4323	-2.6215	-1.8232	-5.0996	-0.0592	0.0182	-0.0073	-0.0462	0.0165	0.9585
27.0539	34.2467	713.2976	42.0638	-189.1087	-14.8581	520.4797	1.924	-0.64088	1.5479	-0.18735	-2.1146	-0.46152	-0.0592	0.0182	-0.0073	-0.0462	0.0165	0.9585
27.0741	36.7315	711.0399	42.1282	-189.0098	-13.9874	514.8791	2.621	9.9328	1.4194	4.3805	-2.2081	8.2574	-0.0592	0.0182	-0.0073	-0.0462	0.0165	0.9585
27.0943	38.6103	706.345	42.6955	-188.0989	-13.6415	507.9377	3.2804	27.0229	0.86757	11.7617	-1.9047	22.3445	-0.0592	0.0182	-0.0073	-0.0462	0.0165	0.9585
27.1145	39.7732	697.5392	43.4982	-185.9508	-13.6662	498.4782	3.6642	51.8403	-0.32496	22.4785	-0.92891	42.7827	-0.0592	0.0182	-0.0073	-0.0462	0.0165	0.9585
27.1347	40.0862	683.2027	44.2032	-182.2188	-13.8806	485.5468	3.3293	84.6767	-2.3596	36.6548	1.0598	69.7962	-0.0592	0.0182	-0.0073	-0.0462	0.0165	0.9585
27.1549	39.476	662.3002	44.4567	-176.663	-14.078	468.4642	1.7248	124.2015	-5.3723	53.7095	4.3884	102.2784	-0.0592	0.0182	-0.0073	-0.0462	0.0165	0.9585
27.1751	38.0208	634.4397	43.9817	-169.2072	-14.0682	446.9661	-1.2612	167.2659	-9.4073	72.2694	9.1241	137.6257	-0.0592	0.0182	-0.0073	-0.0462	0.0165	0.9585
27.1954	35.9707	600.2417	42.675	-160.0269	-13.7377	421.4638	-5.1438	210.1963	-14.14	90.7475	14.7724	172.7653	-0.0592	0.0182	-0.0073	-0.0462	0.0165	0.9585
27.2156	33.6386	561.4131	40.6584	-149.568	-13.1083	393.1278	-9.3084	250.8039	-18.9599	108.2154	20.557	205.8404	-0.0592	0.0182	-0.0073	-0.0462	0.0165	0.9585
27.2358	31.2204	520.2429	38.2092	-138.4185	-12.3333	363.5631	-13.2605	288.4795	-23.2993	124.4297	25.8079	236.3396	-0.0592	0.0182	-0.0073	-0.0462	0.0165	0.9585
27.256	28.7447	478.9733	35.624	-127.1529	-11.6071	334.3624	-16.6396	323.1993	-26.8512	139.3836	30.1374	264.2672	-0.0592	0.0182	-0.0073	-0.0462	0.0165	0.9585
27.2762	26.1803	439.5091	33.1411	-116.2689	-11.0822	306.8525	-19.1993	355.0399	-29.5676	153.0935	33.4207	289.7165	-0.0592	0.0182	-0.0073	-0.0462	0.0165	0.9585
27.2964	23.5313	403.3108	30.9166	-106.1636	-10.8335	281.9961	-20.8398	383.9884	-31.5429	165.5251	35.7096	312.7166	-0.0592	0.0182	-0.0073	-0.0462	0.0165	0.9585
27.3166	20.8665	371.3071	29.0233	-97.1081	-10.8553	260.3432	-21.6123	409.9127	-32.9047	176.5931	37.1438	333.2083	-0.0592	0.0182	-0.0073	-0.0462	0.0165	0.9585
27.3369	18.3244	343.8489	27.4702	-89.231	-11.0833	242.0118	-21.6485	432.7302	-33.7599	186.241	37.8761	351.1675	-0.0592	0.0182	-0.0073	-0.0462	0.0165	0.9585
27.3571	16.0896	320.7733	26.2304	-82.5284	-11.425	226.7497	-21.0778	452.5694	-34.2045	194.5125	38.0451	366.7301	-0.0592	0.0182	-0.0073	-0.0462	0.0165	0.9585
27.3773	14.3165	301.5476	25.2524	-76.8944	-11.7871	214.077	-20.0221	469.7868	-34.3446	201.5578	37.7865	380.2197	-0.0592	0.0182	-0.0073	-0.0462	0.0165	0.9585
27.3975	13.08	285.411	24.4761	-72.1535	-12.0954	203.4031	-18.6047	484.8453	-34.2869	207.582	37.2341	392.0537	-0.0592	0.0182	-0.0073	-0.0462	0.0165	0.9585
27.4177	12.3751	271.4634	23.8288	-68.0841	-12.2865	194.074	-16.9448	498.1805	-34.1236	212.791	36.5074	402.6243	-0.0592	0.0182	-0.0073	-0.0462	0.0165	0.9585
27.4379	12.1372	258.7429	23.2177	-64.4419	-12.2995	185.4176	-15.1537	510.1156	-33.9293	217.3528	35.7099	412.2225	-0.0592	0.0182	-0.0073	-0.0462	0.0165	0.9585
27.4581	12.2437	246.3695	22.5432	-60.9971	-12.0929	176.8458	-13.3297	520.8465	-33.7531	221.3903	34.9178	421.0263	-0.0592	0.0182	-0.0073	-0.0462	0.0165	0.9585
27.4784	12.5148	233.693	21.7163	-57.572	-11.6599	167.9511	-11.5515	530.519	-33.6129	225.0127	34.1728	429.1494	-0.0592	0.0182	-0.0073	-0.0462	0.0165	0.9585
27.4986	12.7449	220.3422	20.6908	-54.0534	-11.0364	158.521	-9.8772	539.4027	-33.5114	228.3812	33.4971	436.7708	-0.0592	0.0182	-0.0073	-0.0462	0.0165	0.9585
27.5188	12.7489	206.1366	19.4823	-50.3749	-10.2954	148.4643	-8.3489	548.0246	-33.4629	231.7578	32.9128	444.2408	-0.0592	0.0182	-0.0073	-0.0462	0.0165	0.9585
27.539	12.4	190.9502	18.1432	-46.488	-9.5174	137.7094	-7.0015	557.1655	-33.5082	235.4962	32.4549	452.0914	-0.0592	0.0182	-0.0073	-0.0462	0.0165	0.9585
27.5592	11.635	174.6434	16.7107	-42.3505	-8.7525	126.159	-5.8648	567.7329	-33.7196	239.9828	32.1811	460.9532	-0.0592	0.0182	-0.0073	-0.0462	0.0165	0.9585
27.5794	10.4413	157.1109	15.1915	-37.9377	-8.017	113.7271	-4.9558	580.573	-34.184	245.5593	32.16	471.413	-0.0592	0.0182	-0.0073	-0.0462	0.0165	0.9585
27.5996	8.8445	138.4318	13.5952	-33.2731	-7.3178	100.4498	-4.2876	596.2787	-34.9762	252.4509	32.4557	483.8834	-0.0592	0.0182	-0.0073	-0.0462	0.0165	0.9585
27.6199	6.9083	118.9773	11.9661	-28.4504	-6.672	86.5679	-3.8774	615.0738	-36.1176	260.7292	33.0955	498.5198	-0.0592	0.0182	-0.0073	-0.0462	0.0165	0.9585
27.6401	4.7374	99.3709	10.361	-23.6249	-6.0934	72.5158	-3.737	636.8261	-37.5573	270.3235	34.0482	515.2251	-0.0592	0.0182	-0.0073	-0.0462	0.0165	0.9585
27.6603	2.4854	80.3338	8.8027	-18.9771	-5.5594	58.8088	-3.8879	661.1799	-39.1717	281.0756	35.2307	533.7493	-0.0592	0.0182	-0.0073	-0.0462	0.0165	0.9585
27.6805	0.34926	62.5341	7.2879	-14.6732	-5.0167	45.9324	-4.3863	687.7567	-40.7904	292.818	36.5347	553.8487	-0.0592	0.0182	-0.0073	-0.0462	0.0165	0.9585
27.7007	-1.4608	46.5019	5.8182	-10.8398	-4.4173	34.2773	-5.3171	716.271	-42.2415	305.4135	37.8599	575.366	-0.0592	0.0182	-0.0073	-0.0462	0.0165	0.9585
27.7209	-2.7492	32.603	4.412	-7.5563	-3.7324	24.1273	-6.7515	746.4483	-43.4056	318.7123	39.1363	598.1553	-0.0592	0.0182	-0.0073	-0.0462	0.0165	0.9585
27.7411	-3.3766	21.0529	3.1007	-4.8612	-2.9548	15.6622	-8.6922	777.712	-44.2483	332.42	40.3303	621.8184	-0.0592	0.0182	-0.0073	-0.0462	0.0165	0.9585
27.7614	-3.3201	11.9602	1.9348	-2.766	-2.1162	8.9774	-11.0256	808.8259	-44.8119	345.9555	41.4236	645.4041	-0.0592	0.0182	-0.0073	-0.0462	0.0165	0.9585
27.7816	-2.7731	5.3257	0.98597	-1.2578	-1.3155	4.0808	-13.5113	837.8099	-45.1753	358.4281	42.3793	667.3356	-0.0592	0.0182	-0.0073	-0.0462	0.0165	0.9585
27.8018	-2.0362	0.93727	0.28772	-0.27624	-0.64823	0.82956	-15.8475	862.2206	-45.4049	368.7671	43.1289	685.6492	-0.0592	0.0182	-0.0073	-0.0462	0.0165	0.9585
27.822	-1.3132	-1.6246	-0.17954	0.28408	-0.15031	-1.0791	-17.7362	879.6589	-45.5283	375.9487	43.5794	698.403	-0.0592	0.0182	-0.0073	-0.0462	0.0165	0.9585
27.8422	-0.70517	-2.8473	-0.45771	0.54071	0.18271	-2.0047	-18.9201	888.3246	-45.5316	379.237	43.6293	704.1206	-0.0592	0.0182	-0.0073	-0.0462	0.0165	0.9585
27.8624	-0.2459	-3.1975	-0.59675	0.60417	0.38103	-2.2947	-19.2086	887.5163	-45.3575	378.3909	43.1739	702.1871	-0.0592	0.0182	-0.0073	-0.0462	0.0165	0.9585
27.8826	0.064136	-3.0715	-0.64518	0.56773	0.48149	-2.2446	-18.5207	877.861	-44.9324	373.7417	42.1393	693.0499	-0.0592	0.0182	-0.0073	-0.0462	0.0165	0.9585
27.9029	0.24596	-2.7793	-0.64324	0.50459	0.52018	-2.0894	-16.9245	861.1439	-44.2236	366.0999	40.54	678.0986	-0.0592	0.0182	-0.0073	-0.0462	0.0165	0.9585
27.9231	0.33659	-2.5528	-0.62388	0.46896	0.53004	-2.0078	-14.6364	839.8579	-43.2717	356.5579	38.5053	659.3026	-0.0592	0.0182	-0.0073	-0.0462	0.0165	0.9585
27.9433	0.37507	-2.5472	-0.61088	0.49854	0.53738	-2.1169	-11.9501	816.6948	-42.1863	346.2772	36.2454	638.7921	-0.0592	0.0182	-0.0073	-0.0462	0.0165	0.9585
27.9635	0.38844	-2.8433	-0.61684	0.61716	0.55905	-2.4834	-9.135	794.1373	-41.1099	336.3192	33.9805	618.5147	-0.0592	0.0182	-0.0073	-0.0462	0.0165	0.9585
27.9837	0.40166	-3.4607	-0.64333	0.83273	0.60197	-3.1232	-6.3698	774.137	-40.17	327.5194	31.8809	599.9693	-0.0592	0.0182	-0.0073	-0.0462	0.0165	0.9585
28.0039	0.44488	-4.3489	-0.68118	1.1322	0.6643	-3.9874	-3.7186	757.9293	-39.4378	320.4155	30.028	584.0608	-0.0592	0.0182	-0.0073	-0.0462	0.0165	0.9585
28.0241	0.54981	-5.3669	-0.71167	1.475	0.73479	-4.9421	-1.1366	746.0145	-38.914	315.234	28.4	571.1087	-0.0592	0.0182	-0.0073	-0.0462	0.0165	0.9585
28.0444	0.74445	-6.2468	-0.70554	1.7823	0.79017	-5.7302	1.5012	738.2333	-38.5444	311.9177	26.8932	560.9336	-0.0592	0.0182	-0.0073	-0.0462	0.0165	0.9585
28.0646	1.0483	-6.5506	-0.62519	1.9255	0.7946	-5.9343	4.3383	733.8972	-38.2537	310.174	25.3728	552.9948	-0.0592	0.0182	-0.0073	-0.0462	0.0165	0.9585
28.0848	1.4687	-5.6489	-0.42468	1.7153	0.70181	-4.9535	7.4766	731.9469	-37.9876	309.538	23.7356	546.5304	-0.0592	0.0182	-0.0073	-0.0462	0.0165	0.9585
28.105	1.9949	-2.7145	-0.052725	0.89652	0.4559	-2.0008	10.9411	731.1101	-37.7418	309.439	21.9518	540.6889	-0.0592	0.0182	-0.0073	-0.0462	0.0165	0.9585
